{
  "accessors": [
    {
      "bufferView": 2,
      "componentType": 5126,
      "count": 356,
      "max": [
        0.9166666865348816,
        1.1167405843734741,
        0.8677901029586792
      ],
      "min": [
        -0.9166666865348816,
        -0.7984341979026794,
        -1.7999999523162842
      ],
      "type": "VEC3"
    },
    {
      "bufferView": 2,
      "byteOffset": 4272,
      "componentType": 5126,
      "count": 356,
      "max": [
        0.9988023042678833,
        0.9851948618888855,
        0.9840944409370422
      ],
      "min": [
        -1.0,
        -0.9532350897789001,
        -1.0
      ],
      "type": "VEC3"
    },
    {
      "bufferView": 1,
      "componentType": 5126,
      "count": 356,
      "max": [
        0.7506119608879089,
        0.8750000596046448
      ],
      "min": [
        0.0,
        0.0
      ],
      "type": "VEC2"
    },
    {
      "bufferView": 0,
      "componentType": 5125,
      "count": 546,
      "type": "SCALAR"
    },
    {
      "bufferView": 2,
      "byteOffset": 8544,
      "componentType": 5126,
      "count": 54,
      "max": [
        0.6501609683036804,
        -0.3533901870250702,
        0.6783736944198608
      ],
      "min": [
        -0.6501609683036804,
        -0.8170709609985352,
        -0.09475952386856079
      ],
      "type": "VEC3"
    },
    {
      "bufferView": 2,
      "byteOffset": 9192,
      "componentType": 5126,
      "count": 54,
      "max": [
        0.9988023042678833,
        0.0,
        0.9840943813323975
      ],
      "min": [
        -1.0,
        -0.9487254619598389,
        -0.9999687075614929
      ],
      "type": "VEC3"
    },
    {
      "bufferView": 1,
      "byteOffset": 2848,
      "componentType": 5126,
      "count": 54,
      "max": [
        0.7500000596046448,
        0.8750000596046448
      ],
      "min": [
        0.0,
        0.0
      ],
      "type": "VEC2"
    },
    {
      "bufferView": 0,
      "byteOffset": 2184,
      "componentType": 5125,
      "count": 84,
      "type": "SCALAR"
    }
  ],
  "asset": {
    "extras": {
      "author": "EgoRiches_LowPoly (https://sketchfab.com/EgoRiches_LowPoly)",
      "license": "CC-BY-4.0 (http://creativecommons.org/licenses/by/4.0/)",
      "source": "https://sketchfab.com/3d-models/among-us-red-low-poly-free-model-d4f8c610c2484fa3bcde223b478b43c5",
      "title": "Among Us Red Low Poly Free Model."
    },
    "generator": "Sketchfab-12.92.0",
    "version": "2.0"
  },
  "bufferViews": [
    {
      "buffer": 0,
      "byteLength": 2520,
      "name": "floatBufferViews",
      "target": 34963
    },
    {
      "buffer": 0,
      "byteLength": 3280,
      "byteOffset": 2520,
      "byteStride": 8,
      "name": "floatBufferViews",
      "target": 34962
    },
    {
      "buffer": 0,
      "byteLength": 9840,
      "byteOffset": 5800,
      "byteStride": 12,
      "name": "floatBufferViews",
      "target": 34962
    }
  ],
  "buffers": [
    {
      "byteLength": 15640,
      "uri": "scene.bin"
    }
  ],
  "materials": [
    {
      "doubleSided": true,
      "name": "Material.001",
      "pbrMetallicRoughness": {
        "baseColorFactor": [
          0.8,
          0.0,
          0.00084083,
          1.0
        ],
        "metallicFactor": 0.0,
        "roughnessFactor": 0.9619553811337527
      }
    },
    {
      "doubleSided": true,
      "name": "Material.002",
      "pbrMetallicRoughness": {
        "baseColorFactor": [
          0.0,
          0.8228527913254894,
          1.0,
          1.0
        ],
        "metallicFactor": 0.0,
        "roughnessFactor": 0.8816949909117757
      }
    }
  ],
  "meshes": [
    {
      "name": "Cube_Material.001_0",
      "primitives": [
        {
          "attributes": {
            "NORMAL": 1,
            "POSITION": 0,
            "TEXCOORD_0": 2
          },
          "indices": 3,
          "material": 0,
          "mode": 4
        }
      ]
    },
    {
      "name": "Cube_Material.002_0",
      "primitives": [
        {
          "attributes": {
            "NORMAL": 5,
            "POSITION": 4,
            "TEXCOORD_0": 6
          },
          "indices": 7,
          "material": 1,
          "mode": 4
        }
      ]
    }
  ],
  "nodes": [
    {
      "children": [
        1
      ],
      "matrix": [
        1.0,
        0.0,
        0.0,
        0.0,
        0.0,
        2.220446049250313e-16,
        -1.0,
        0.0,
        0.0,
        1.0,
        2.220446049250313e-16,
        0.0,
        0.0,
        0.0,
        0.0,
        1.0
      ],
      "name": "Sketchfab_model"
    },
    {
      "children": [
        2
      ],
      "matrix": [
        0.009999999776482582,
        0.0,
        0.0,
        0.0,
        0.0,
        0.0,
        0.009999999776482582,
        0.0,
        0.0,
        -0.009999999776482582,
        0.0,
        0.0,
        0.0,
        0.0,
        0.0,
        1.0
      ],
      "name": "Among us Red.fbx"
    },
    {
      "children": [
        3
      ],
      "name": "RootNode"
    },
    {
      "children": [
        4,
        5
      ],
      "matrix": [
        100.0,
        0.0,
        0.0,
        0.0,
        0.0,
        -1.629206793918314e-05,
        -99.99999999999868,
        0.0,
        0.0,
        125.44534301757646,
        -2.0437640510965163e-05,
        0.0,
        0.0,
        446.7403869628906,
        0.0,
        1.0
      ],
      "name": "Cube"
    },
    {
      "mesh": 0,
      "name": "Cube_Material.001_0"
    },
    {
      "mesh": 1,
      "name": "Cube_Material.002_0"
    }
  ],
  "scene": 0,
  "scenes": [
    {
      "name": "Sketchfab_Scene",
      "nodes": [
        0
      ]
    }
  ]
}
